<svg xmlns="http://www.w3.org/2000/svg" width="1024" height="1024" fill="none" viewBox="0 0 1024 1024"><g filter="url(#filter0_d)"><g filter="url(#filter1_ii)"><path fill="url(#paint0_linear)" fill-rule="evenodd" d="M43.2653 291.8C43.1946 293.059 43.256 294.346 43.4614 295.643L142.516 921.048C144.071 930.866 153.291 937.565 163.11 936.01L905.155 818.482C914.385 817.02 920.858 808.785 920.309 799.646L920.357 799.934L920.749 828.022C920.874 836.968 914.41 844.647 905.574 846.05L163.109 963.979C153.288 965.539 144.062 958.839 142.507 949.017L41.7523 312.88C41.5126 311.366 41.4671 309.828 41.6172 308.302L43.2399 291.803L43.2653 291.8Z" clip-rule="evenodd"/></g><g filter="url(#filter2_i)"><rect width="787.295" height="669.201" x="40.645" y="277.864" fill="url(#paint1_linear)" rx="18" transform="rotate(-9 40.6455 277.864)"/></g></g><g filter="url(#filter3_d)"><g filter="url(#filter4_ii)"><path fill="url(#paint2_linear)" fill-rule="evenodd" d="M115.124 177.45C114.8 179.339 114.775 181.312 115.091 183.31L214.145 808.715C215.701 818.534 224.921 825.233 234.74 823.678L976.785 706.149C985.349 704.793 991.539 697.605 991.95 689.275L992.729 720.141C992.956 729.161 986.47 736.956 977.558 738.372L235.269 856.276C225.448 857.835 216.223 851.136 214.667 841.314L112.926 198.946C112.653 197.223 112.632 195.469 112.864 193.74L115.044 177.46L115.124 177.45ZM991.828 686.119C991.848 686.281 991.866 686.442 991.883 686.603L991.878 686.421L991.828 686.119Z" clip-rule="evenodd"/></g><g filter="url(#filter5_d)"><rect width="787.295" height="669.201" x="112.274" y="165.532" fill="url(#paint3_linear)" rx="18" transform="rotate(-9 112.274 165.532)"/></g></g><g style="mix-blend-mode:multiply" filter="url(#filter6_f)"><rect width="797.465" height="669.201" x="70.281" y="241.96" fill="url(#paint4_linear)" rx="18" transform="rotate(-9 70.2812 241.96)"/></g><g filter="url(#filter7_d)"><g filter="url(#filter8_i)"><path fill="url(#paint5_linear)" fill-rule="evenodd" d="M125.235 247.067L123.623 262.421C123.459 263.985 123.5 265.563 123.746 267.117L214.743 841.65C216.3 851.478 225.536 858.179 235.362 856.608L913.066 748.318L912.397 714.939L910.111 703.3L912.183 716.388L234.786 823.678C224.967 825.233 215.747 818.534 214.192 808.715L125.235 247.067Z" clip-rule="evenodd"/></g><g filter="url(#filter9_i)"><path fill="url(#paint6_linear)" d="M125.243 247.115L802.641 139.826C812.46 138.271 821.68 144.97 823.235 154.789L912.184 716.388L234.786 823.678C224.967 825.233 215.747 818.534 214.192 808.715L125.243 247.115Z"/></g></g><g filter="url(#filter10_di)"><path fill="url(#paint7_linear)" fill-rule="evenodd" d="M584.391 324.8C583.309 317.969 590.016 312.521 596.48 314.98L768.947 380.58C775.445 383.052 776.806 391.645 771.389 396.004L627.635 511.689C622.247 516.025 614.186 512.916 613.104 506.085L606.155 462.211C605.377 457.302 600.767 453.952 595.858 454.73L501.12 469.735C496.211 470.512 491.6 467.163 490.823 462.254L481.577 403.875C480.799 398.966 484.149 394.355 489.058 393.578L583.795 378.573C588.705 377.795 592.054 373.185 591.277 368.276L584.391 324.8Z" clip-rule="evenodd"/><path fill="url(#paint8_linear)" fill-rule="evenodd" d="M433.452 485.856C432.37 479.025 424.309 475.916 418.921 480.252L275.167 595.937C269.75 600.296 271.111 608.889 277.609 611.361L450.076 676.961C456.54 679.42 463.247 673.972 462.165 667.141L455.216 623.267C454.439 618.358 457.788 613.748 462.697 612.97L557.435 597.965C562.345 597.188 565.694 592.577 564.917 587.668L555.67 529.289C554.893 524.38 550.283 521.031 545.373 521.808L450.635 536.813C445.726 537.591 441.116 534.241 440.338 529.332L433.452 485.856Z" clip-rule="evenodd"/></g><g filter="url(#filter11_di)"><circle cx="206.587" cy="303.705" r="23.384" fill="url(#paint9_linear)" transform="rotate(-9 206.587 303.705)"/><circle cx="272.577" cy="293.253" r="23.384" fill="url(#paint10_linear)" transform="rotate(-9 272.577 293.253)"/><circle cx="339.277" cy="282.689" r="23.384" fill="url(#paint11_linear)" transform="rotate(-9 339.277 282.689)"/></g><defs><filter id="filter0_d" width="920.64" height="844.091" x="14.532" y="154.704" color-interpolation-filters="sRGB" filterUnits="userSpaceOnUse"><feFlood flood-opacity="0" result="BackgroundImageFix"/><feColorMatrix in="SourceAlpha" type="matrix" values="0 0 0 0 0 0 0 0 0 0 0 0 0 0 0 0 0 0 127 0"/><feOffset dx="-8" dy="16"/><feGaussianBlur stdDeviation="8"/><feColorMatrix type="matrix" values="0 0 0 0 0 0 0 0 0 0 0 0 0 0 0 0 0 0 0.25 0"/><feBlend in2="BackgroundImageFix" mode="normal" result="effect1_dropShadow"/><feBlend in="SourceGraphic" in2="effect1_dropShadow" mode="normal" result="shape"/></filter><filter id="filter1_ii" width="888.64" height="806.08" x="38.532" y="164.716" color-interpolation-filters="sRGB" filterUnits="userSpaceOnUse"><feFlood flood-opacity="0" result="BackgroundImageFix"/><feBlend in="SourceGraphic" in2="BackgroundImageFix" mode="normal" result="shape"/><feColorMatrix in="SourceAlpha" result="hardAlpha" type="matrix" values="0 0 0 0 0 0 0 0 0 0 0 0 0 0 0 0 0 0 127 0"/><feOffset dy="4"/><feGaussianBlur stdDeviation="2"/><feComposite in2="hardAlpha" k2="-1" k3="1" operator="arithmetic"/><feColorMatrix type="matrix" values="0 0 0 0 1 0 0 0 0 1 0 0 0 0 1 0 0 0 0.25 0"/><feBlend in2="shape" mode="normal" result="effect1_innerShadow"/><feColorMatrix in="SourceAlpha" result="hardAlpha" type="matrix" values="0 0 0 0 0 0 0 0 0 0 0 0 0 0 0 0 0 0 127 0"/><feOffset dy="-4"/><feGaussianBlur stdDeviation="2"/><feComposite in2="hardAlpha" k2="-1" k3="1" operator="arithmetic"/><feColorMatrix type="matrix" values="0 0 0 0 0 0 0 0 0 0 0 0 0 0 0 0 0 0 0.08 0"/><feBlend in2="effect1_innerShadow" mode="normal" result="effect2_innerShadow"/></filter><filter id="filter2_i" width="882.288" height="788.122" x="40.645" y="154.704" color-interpolation-filters="sRGB" filterUnits="userSpaceOnUse"><feFlood flood-opacity="0" result="BackgroundImageFix"/><feBlend in="SourceGraphic" in2="BackgroundImageFix" mode="normal" result="shape"/><feColorMatrix in="SourceAlpha" result="hardAlpha" type="matrix" values="0 0 0 0 0 0 0 0 0 0 0 0 0 0 0 0 0 0 127 0"/><feOffset dy="4"/><feGaussianBlur stdDeviation="2"/><feComposite in2="hardAlpha" k2="-1" k3="1" operator="arithmetic"/><feColorMatrix type="matrix" values="0 0 0 0 1 0 0 0 0 1 0 0 0 0 1 0 0 0 0.25 0"/><feBlend in2="shape" mode="normal" result="effect1_innerShadow"/></filter><filter id="filter3_d" width="914.288" height="846.129" x="88.274" y="42.372" color-interpolation-filters="sRGB" filterUnits="userSpaceOnUse"><feFlood flood-opacity="0" result="BackgroundImageFix"/><feColorMatrix in="SourceAlpha" type="matrix" values="0 0 0 0 0 0 0 0 0 0 0 0 0 0 0 0 0 0 127 0"/><feOffset dx="-8" dy="16"/><feGaussianBlur stdDeviation="8"/><feColorMatrix type="matrix" values="0 0 0 0 0 0 0 0 0 0 0 0 0 0 0 0 0 0 0.25 0"/><feBlend in2="BackgroundImageFix" mode="normal" result="effect1_dropShadow"/><feBlend in="SourceGraphic" in2="effect1_dropShadow" mode="normal" result="shape"/></filter><filter id="filter4_ii" width="880.03" height="687.051" x="112.704" y="173.45" color-interpolation-filters="sRGB" filterUnits="userSpaceOnUse"><feFlood flood-opacity="0" result="BackgroundImageFix"/><feBlend in="SourceGraphic" in2="BackgroundImageFix" mode="normal" result="shape"/><feColorMatrix in="SourceAlpha" result="hardAlpha" type="matrix" values="0 0 0 0 0 0 0 0 0 0 0 0 0 0 0 0 0 0 127 0"/><feOffset dy="4"/><feGaussianBlur stdDeviation="2"/><feComposite in2="hardAlpha" k2="-1" k3="1" operator="arithmetic"/><feColorMatrix type="matrix" values="0 0 0 0 1 0 0 0 0 1 0 0 0 0 1 0 0 0 0.25 0"/><feBlend in2="shape" mode="normal" result="effect1_innerShadow"/><feColorMatrix in="SourceAlpha" result="hardAlpha" type="matrix" values="0 0 0 0 0 0 0 0 0 0 0 0 0 0 0 0 0 0 127 0"/><feOffset dy="-4"/><feGaussianBlur stdDeviation="2"/><feComposite in2="hardAlpha" k2="-1" k3="1" operator="arithmetic"/><feColorMatrix type="matrix" values="0 0 0 0 0 0 0 0 0 0 0 0 0 0 0 0 0 0 0.08 0"/><feBlend in2="effect1_innerShadow" mode="normal" result="effect2_innerShadow"/></filter><filter id="filter5_d" width="890.288" height="792.122" x="108.274" y="42.372" color-interpolation-filters="sRGB" filterUnits="userSpaceOnUse"><feFlood flood-opacity="0" result="BackgroundImageFix"/><feColorMatrix in="SourceAlpha" type="matrix" values="0 0 0 0 0 0 0 0 0 0 0 0 0 0 0 0 0 0 127 0"/><feOffset dy="4"/><feGaussianBlur stdDeviation="2"/><feColorMatrix type="matrix" values="0 0 0 0 0 0 0 0 0 0 0 0 0 0 0 0 0 0 0.25 0"/><feBlend in2="BackgroundImageFix" mode="normal" result="effect1_dropShadow"/><feBlend in="SourceGraphic" in2="effect1_dropShadow" mode="normal" result="shape"/></filter><filter id="filter6_f" width="908.333" height="801.713" x="62.281" y="109.209" color-interpolation-filters="sRGB" filterUnits="userSpaceOnUse"><feFlood flood-opacity="0" result="BackgroundImageFix"/><feBlend in="SourceGraphic" in2="BackgroundImageFix" mode="normal" result="shape"/><feGaussianBlur result="effect1_foregroundBlur" stdDeviation="4"/></filter><filter id="filter7_d" width="821.542" height="749.235" x="99.524" y="139.602" color-interpolation-filters="sRGB" filterUnits="userSpaceOnUse"><feFlood flood-opacity="0" result="BackgroundImageFix"/><feColorMatrix in="SourceAlpha" type="matrix" values="0 0 0 0 0 0 0 0 0 0 0 0 0 0 0 0 0 0 127 0"/><feOffset dx="-8" dy="16"/><feGaussianBlur stdDeviation="8"/><feColorMatrix type="matrix" values="0 0 0 0 0 0 0 0 0 0 0 0 0 0 0 0 0 0 0.25 0"/><feBlend in2="BackgroundImageFix" mode="normal" result="effect1_dropShadow"/><feBlend in="SourceGraphic" in2="effect1_dropShadow" mode="normal" result="shape"/></filter><filter id="filter8_i" width="789.542" height="613.77" x="123.524" y="247.067" color-interpolation-filters="sRGB" filterUnits="userSpaceOnUse"><feFlood flood-opacity="0" result="BackgroundImageFix"/><feBlend in="SourceGraphic" in2="BackgroundImageFix" mode="normal" result="shape"/><feColorMatrix in="SourceAlpha" result="hardAlpha" type="matrix" values="0 0 0 0 0 0 0 0 0 0 0 0 0 0 0 0 0 0 127 0"/><feOffset dy="4"/><feGaussianBlur stdDeviation="2"/><feComposite in2="hardAlpha" k2="-1" k3="1" operator="arithmetic"/><feColorMatrix type="matrix" values="0 0 0 0 1 0 0 0 0 1 0 0 0 0 1 0 0 0 0.2 0"/><feBlend in2="shape" mode="normal" result="effect1_innerShadow"/></filter><filter id="filter9_i" width="786.94" height="688.3" x="125.243" y="139.602" color-interpolation-filters="sRGB" filterUnits="userSpaceOnUse"><feFlood flood-opacity="0" result="BackgroundImageFix"/><feBlend in="SourceGraphic" in2="BackgroundImageFix" mode="normal" result="shape"/><feColorMatrix in="SourceAlpha" result="hardAlpha" type="matrix" values="0 0 0 0 0 0 0 0 0 0 0 0 0 0 0 0 0 0 127 0"/><feOffset dy="4"/><feGaussianBlur stdDeviation="2"/><feComposite in2="hardAlpha" k2="-1" k3="1" operator="arithmetic"/><feColorMatrix type="matrix" values="0 0 0 0 1 0 0 0 0 1 0 0 0 0 1 0 0 0 0.25 0"/><feBlend in2="shape" mode="normal" result="effect1_innerShadow"/></filter><filter id="filter10_di" width="517.52" height="383.226" x="260.874" y="308.913" color-interpolation-filters="sRGB" filterUnits="userSpaceOnUse"><feFlood flood-opacity="0" result="BackgroundImageFix"/><feColorMatrix in="SourceAlpha" type="matrix" values="0 0 0 0 0 0 0 0 0 0 0 0 0 0 0 0 0 0 127 0"/><feOffset dx="-3.644" dy="7.288"/><feGaussianBlur stdDeviation="3.644"/><feColorMatrix type="matrix" values="0 0 0 0 1 0 0 0 0 1 0 0 0 0 1 0 0 0 0.25 0"/><feBlend in2="BackgroundImageFix" mode="normal" result="effect1_dropShadow"/><feBlend in="SourceGraphic" in2="effect1_dropShadow" mode="normal" result="shape"/><feColorMatrix in="SourceAlpha" result="hardAlpha" type="matrix" values="0 0 0 0 0 0 0 0 0 0 0 0 0 0 0 0 0 0 127 0"/><feOffset dy="-5.466"/><feGaussianBlur stdDeviation="2.733"/><feComposite in2="hardAlpha" k2="-1" k3="1" operator="arithmetic"/><feColorMatrix type="matrix" values="0 0 0 0 0 0 0 0 0 0 0 0 0 0 0 0 0 0 0.25 0"/><feBlend in2="shape" mode="normal" result="effect2_innerShadow"/></filter><filter id="filter11_di" width="187.466" height="79.792" x="177.199" y="255.301" color-interpolation-filters="sRGB" filterUnits="userSpaceOnUse"><feFlood flood-opacity="0" result="BackgroundImageFix"/><feColorMatrix in="SourceAlpha" type="matrix" values="0 0 0 0 0 0 0 0 0 0 0 0 0 0 0 0 0 0 127 0"/><feOffset dx="-2" dy="4"/><feGaussianBlur stdDeviation="2"/><feColorMatrix type="matrix" values="0 0 0 0 1 0 0 0 0 1 0 0 0 0 1 0 0 0 0.25 0"/><feBlend in2="BackgroundImageFix" mode="normal" result="effect1_dropShadow"/><feBlend in="SourceGraphic" in2="effect1_dropShadow" mode="normal" result="shape"/><feColorMatrix in="SourceAlpha" result="hardAlpha" type="matrix" values="0 0 0 0 0 0 0 0 0 0 0 0 0 0 0 0 0 0 127 0"/><feOffset dy="-4"/><feGaussianBlur stdDeviation="2"/><feComposite in2="hardAlpha" k2="-1" k3="1" operator="arithmetic"/><feColorMatrix type="matrix" values="0 0 0 0 0 0 0 0 0 0 0 0 0 0 0 0 0 0 0.25 0"/><feBlend in2="shape" mode="normal" result="effect2_innerShadow"/></filter><linearGradient id="paint0_linear" x1="147.206" x2="929.056" y1="947.458" y2="823.625" gradientUnits="userSpaceOnUse"><stop stop-color="#AF1C3F"/><stop offset=".01" stop-color="#E24E8E"/><stop offset=".021" stop-color="#C6186B"/><stop offset=".975" stop-color="#C6186B"/><stop offset=".989" stop-color="#DE3471"/><stop offset="1" stop-color="#AF1C3F"/></linearGradient><linearGradient id="paint1_linear" x1="434.293" x2="434.293" y1="277.864" y2="947.065" gradientUnits="userSpaceOnUse"><stop stop-color="#D619AC"/><stop offset="1" stop-color="#D0224C"/></linearGradient><linearGradient id="paint2_linear" x1="216.437" x2="990.025" y1="835.868" y2="711.145" gradientUnits="userSpaceOnUse"><stop offset=".003" stop-color="#1598D0"/><stop offset=".014" stop-color="#4BBAF2"/><stop offset=".022" stop-color="#1CA8D4"/><stop offset=".75" stop-color="#1D8CDC"/><stop offset=".974" stop-color="#1CA8D5"/><stop offset="1" stop-color="#1A81CC"/></linearGradient><linearGradient id="paint3_linear" x1="505.922" x2="505.922" y1="165.532" y2="834.732" gradientUnits="userSpaceOnUse"><stop stop-color="#1DDFDF"/><stop offset="1" stop-color="#1D8CDC"/></linearGradient><linearGradient id="paint4_linear" x1="469.014" x2="469.014" y1="241.96" y2="911.16" gradientUnits="userSpaceOnUse"><stop stop-color="#F0E57E" stop-opacity="0"/><stop offset="1" stop-color="#FFE600"/></linearGradient><linearGradient id="paint5_linear" x1="211.033" x2="906.144" y1="831.064" y2="721.575" gradientUnits="userSpaceOnUse"><stop stop-color="#0D0C4E"/><stop offset=".022" stop-color="#23208B"/><stop offset=".044" stop-color="#161386"/><stop offset=".266" stop-color="#100E5B"/><stop offset="1" stop-color="#100E5B"/></linearGradient><linearGradient id="paint6_linear" x1="472.831" x2="564.596" y1="192.063" y2="771.441" gradientUnits="userSpaceOnUse"><stop stop-color="#161386"/><stop offset="1" stop-color="#0A093D"/></linearGradient><linearGradient id="paint7_linear" x1="614.667" x2="646.2" y1="310.879" y2="509.969" gradientUnits="userSpaceOnUse"><stop stop-color="#fff"/><stop offset="1" stop-color="#EAFEFE"/></linearGradient><linearGradient id="paint8_linear" x1="400.356" x2="431.889" y1="481.972" y2="681.062" gradientUnits="userSpaceOnUse"><stop stop-color="#fff"/><stop offset="1" stop-color="#EAFEFE"/></linearGradient><linearGradient id="paint9_linear" x1="206.587" x2="206.587" y1="280.32" y2="327.089" gradientUnits="userSpaceOnUse"><stop stop-color="#fff"/><stop offset="1" stop-color="#EAFEFE"/></linearGradient><linearGradient id="paint10_linear" x1="272.577" x2="272.577" y1="269.868" y2="316.637" gradientUnits="userSpaceOnUse"><stop stop-color="#fff"/><stop offset="1" stop-color="#EAFEFE"/></linearGradient><linearGradient id="paint11_linear" x1="339.277" x2="339.277" y1="259.304" y2="306.073" gradientUnits="userSpaceOnUse"><stop stop-color="#fff"/><stop offset="1" stop-color="#EAFEFE"/></linearGradient></defs></svg>